# xmcd
#
# Track frame offsets:
#	183
#	21095
#	36010
#	54603
#	84098
#	100988
#	138630
#	162515
#
# Disc length: 2416 seconds
#
# Revision: 0
# Processed by: cddbd v1.4PL0 Copyright (c) Steve Scherf et al.
# Submitted via: EasyCDDAExtractor 4.6.0.1
#
DISCID=61096e08
DTITLE=GNR - Valsa dos detectives
DYEAR=1989
DGENRE=Country
TTITLE0=Morte ao sol
TTITLE1=Valsa dos detectives
TTITLE2=Impressões digitais
TTITLE3=1991
TTITLE4=(Um chamado) desejo electrico
TTITLE5=Jardim d'ala, Walkin'
TTITLE6=Dama ou tigre
TTITLE7=Falha humana
EXTD=
EXTT0=
EXTT1=
EXTT2=
EXTT3=
EXTT4=
EXTT5=
EXTT6=
EXTT7=
PLAYORDER=
